<?xml version="1.0" standalone="no"?><!DOCTYPE svg PUBLIC "-//W3C//DTD SVG 20010904//EN"
    "http://www.w3.org/TR/2001/REC-SVG-20010904/DTD/svg10.dtd">
<svg version="1.0" xmlns="http://www.w3.org/2000/svg" width="100.000000pt" height="100.000000pt"
    viewBox="0 0 100.000000 100.000000" preserveAspectRatio="xMidYMid meet">

    <g transform="translate(0.000000,100.000000) scale(0.100000,-0.100000)" fill="#000000" stroke="none">
        <path d="M340 790 l0 -130 40 0 40 0 0 62 0 63 225 -225 225 -225 27 28 28 27
-225 225 -225 225 63 0 62 0 0 40 0 40 -130 0 -130 0 0 -130z" />
        <path d="M97 622 c-10 -10 -17 -23 -17 -28 0 -5 100 -109 222 -231 l223 -223
-63 0 -62 0 0 -40 0 -40 130 0 130 0 0 130 0 130 -40 0 -40 0 0 -62 0 -63
-223 223 c-122 122 -227 222 -233 222 -6 0 -18 -8 -27 -18z" />
    </g>
</svg>
