<?xml version="1.0" standalone="no"?>
<!DOCTYPE svg PUBLIC "-//W3C//DTD SVG 20010904//EN"
 "http://www.w3.org/TR/2001/REC-SVG-20010904/DTD/svg10.dtd">
<svg version="1.0" xmlns="http://www.w3.org/2000/svg"
 width="100.000000pt" height="100.000000pt" viewBox="0 0 100.000000 100.000000"
 preserveAspectRatio="xMidYMid meet">

<g transform="translate(0.000000,100.000000) scale(0.100000,-0.100000)"
fill="#000000" stroke="none">
<path d="M162 857 c-82 -82 -93 -102 -70 -125 21 -21 43 -13 83 28 l40 41 5
-242 c4 -216 7 -243 23 -253 12 -8 22 -8 35 0 15 10 18 37 22 253 l5 242 40
-41 c21 -22 46 -40 55 -40 20 0 40 19 40 40 0 20 -160 180 -180 180 -9 0 -52
-37 -98 -83z"/>
<path d="M710 925 c-26 -32 13 -81 48 -59 34 22 22 74 -18 74 -10 0 -23 -7
-30 -15z"/>
<path d="M710 805 c-26 -32 13 -81 48 -59 34 22 22 74 -18 74 -10 0 -23 -7
-30 -15z"/>
<path d="M712 688 c-9 -9 -12 -79 -12 -252 l0 -240 -43 42 c-23 23 -50 42 -58
42 -20 0 -39 -20 -39 -40 0 -20 160 -180 180 -180 20 0 180 161 180 181 0 19
-20 39 -39 39 -8 0 -35 -19 -58 -42 l-43 -42 0 240 c0 246 -3 264 -40 264 -9
0 -21 -5 -28 -12z"/>
<path d="M230 245 c-15 -18 -10 -45 13 -59 34 -22 73 27 47 59 -16 19 -44 19
-60 0z"/>
<path d="M230 125 c-26 -32 13 -81 48 -59 22 14 27 41 12 59 -16 19 -44 19
-60 0z"/>
</g>
</svg>
